<svg width="56" height="56" viewBox="0 0 56 56" fill="none" xmlns="http://www.w3.org/2000/svg">
<path d="M51.0781 11.5938H46.1562L14.7656 8.3125L6.5625 16.5156L4.92188 54.25H49.4375C53.0468 54.25 56 51.2968 56 47.6875V16.5156C56 13.7922 53.8016 11.5938 51.0781 11.5938Z" fill="url(#paint0_linear_1_4)"/>
<path d="M46.1562 5.03125C46.1562 3.22656 44.6797 1.75 42.875 1.75H3.28125C1.47656 1.75 0 3.22656 0 5.03125V49.3281C0 52.105 2.2657 54.25 4.92188 54.25C7.64542 54.25 9.84375 52.0513 9.84375 49.3281V16.5156C9.84375 13.7922 12.0421 11.5938 14.7656 11.5938H46.1562V5.03125ZM16.5156 39.4844C16.5156 40.3912 17.2494 41.125 18.1562 41.125H47.6875C48.5943 41.125 49.3281 40.3912 49.3281 39.4844C49.3281 38.5775 48.5943 37.8438 47.6875 37.8438H18.1562C17.2494 37.8438 16.5156 38.5775 16.5156 39.4844ZM47.6875 44.4062H18.1562C17.2494 44.4062 16.5156 45.14 16.5156 46.0469C16.5156 46.9537 17.2494 47.6875 18.1562 47.6875H47.6875C48.5943 47.6875 49.3281 46.9537 49.3281 46.0469C49.3281 45.14 48.5943 44.4062 47.6875 44.4062ZM42.003 23.3153C41.9088 23.024 41.7349 22.7649 41.501 22.5675C41.2671 22.3701 40.9825 22.2423 40.6795 22.1985L36.6869 21.617L34.8988 17.9993C34.3477 16.8809 32.5084 16.8794 31.9572 18.0009L30.1724 21.6171L26.1798 22.1986C25.8768 22.2424 25.5922 22.3703 25.3583 22.5677C25.1244 22.7651 24.9505 23.0241 24.8563 23.3154C24.7619 23.6064 24.7508 23.9182 24.8245 24.2152C24.8981 24.5123 25.0535 24.7828 25.273 24.996L28.16 27.8126L27.4775 31.7877C27.4258 32.0896 27.4596 32.4 27.5752 32.6837C27.6907 32.9674 27.8833 33.2131 28.1313 33.3931C28.379 33.5727 28.672 33.6794 28.9772 33.7012C29.2824 33.723 29.5876 33.659 29.8584 33.5164L33.4281 31.6403L37.0009 33.5164C37.552 33.8064 38.2217 33.7615 38.728 33.3914C38.976 33.2119 39.1687 32.9665 39.2843 32.683C39.3998 32.3996 39.4336 32.0894 39.3818 31.7877L38.6993 27.8126L41.5863 24.996C41.8058 24.7827 41.9612 24.5122 42.0348 24.2152C42.1085 23.9181 42.0974 23.6064 42.003 23.3153Z" fill="url(#paint1_linear_1_4)"/>
<defs>
<linearGradient id="paint0_linear_1_4" x1="30.4609" y1="54.25" x2="30.4609" y2="8.3125" gradientUnits="userSpaceOnUse">
<stop stop-color="#5558FF"/>
<stop offset="1" stop-color="#00C0FF"/>
</linearGradient>
<linearGradient id="paint1_linear_1_4" x1="24.6641" y1="47.6875" x2="24.6641" y2="17.1601" gradientUnits="userSpaceOnUse">
<stop stop-color="#ADDCFF"/>
<stop offset="0.503" stop-color="#EAF6FF"/>
<stop offset="1" stop-color="#EAF6FF"/>
</linearGradient>
</defs>
</svg>
