<svg width="173" height="40" viewBox="0 0 173 40" fill="none" xmlns="http://www.w3.org/2000/svg">
<path d="M36.4844 8.28125H32.9688L10.5469 5.9375L4.6875 11.7969L3.51562 38.75H35.3125C37.8905 38.75 40 36.6405 40 34.0625V11.7969C40 9.85156 38.4297 8.28125 36.4844 8.28125Z" fill="url(#paint0_linear_4001_39)"/>
<path d="M32.9688 3.59375C32.9688 2.30469 31.9141 1.25 30.625 1.25H2.34375C1.05469 1.25 0 2.30469 0 3.59375V35.2344C0 37.2179 1.61836 38.75 3.51562 38.75C5.46102 38.75 7.03125 37.1795 7.03125 35.2344V11.7969C7.03125 9.85156 8.60148 8.28125 10.5469 8.28125H32.9688V3.59375ZM11.7969 28.2031C11.7969 28.8509 12.321 29.375 12.9688 29.375H34.0625C34.7102 29.375 35.2344 28.8509 35.2344 28.2031C35.2344 27.5554 34.7102 27.0312 34.0625 27.0312H12.9688C12.321 27.0312 11.7969 27.5554 11.7969 28.2031ZM34.0625 31.7188H12.9688C12.321 31.7188 11.7969 32.2429 11.7969 32.8906C11.7969 33.5384 12.321 34.0625 12.9688 34.0625H34.0625C34.7102 34.0625 35.2344 33.5384 35.2344 32.8906C35.2344 32.2429 34.7102 31.7188 34.0625 31.7188ZM30.0021 16.6537C29.9349 16.4457 29.8107 16.2607 29.6436 16.1197C29.4765 15.9787 29.2732 15.8874 29.0568 15.8561L26.2049 15.4407L24.9277 12.8566C24.5341 12.0578 23.2203 12.0567 22.8266 12.8578L21.5517 15.4408L18.6998 15.8562C18.4835 15.8874 18.2802 15.9788 18.1131 16.1198C17.946 16.2608 17.8218 16.4458 17.7545 16.6538C17.6871 16.8617 17.6792 17.0844 17.7318 17.2966C17.7844 17.5088 17.8953 17.702 18.0521 17.8543L20.1143 19.8662L19.6268 22.7055C19.5899 22.9211 19.614 23.1428 19.6966 23.3455C19.7791 23.5481 19.9167 23.7237 20.0938 23.8522C20.2707 23.9805 20.48 24.0567 20.698 24.0723C20.916 24.0879 21.134 24.0422 21.3274 23.9403L23.8772 22.6002L26.4292 23.9403C26.8229 24.1474 27.3012 24.1154 27.6629 23.851C27.84 23.7228 27.9776 23.5475 28.0602 23.345C28.1427 23.1425 28.1669 22.921 28.1298 22.7055L27.6423 19.8662L29.7045 17.8543C29.8613 17.702 29.9723 17.5087 30.0249 17.2965C30.0775 17.0844 30.0696 16.8617 30.0021 16.6537Z" fill="url(#paint1_linear_4001_39)"/>
<path d="M47.0743 16.9286L52.0115 4.92859H54.8743L59.76 16.9286H57.0686L55.8515 13.7743H50.8972L49.6629 16.9286H47.0743ZM51.6686 11.7857H55.0972L53.3829 7.36287L51.6686 11.7857ZM60.7787 16.9286V4.92859H63.2644V14.7343H69.8301V16.9286H60.7787ZM71.5432 16.9286V4.92859H74.0289V14.7343H80.5946V16.9286H71.5432ZM85.7564 16.9286V4.92859H91.3964C92.2078 4.92859 92.9164 5.06573 93.5221 5.34002C94.1278 5.6143 94.6021 6.00287 94.9449 6.50573C95.2878 6.99716 95.4592 7.56859 95.4592 8.22002C95.4592 8.74573 95.3221 9.23145 95.0478 9.67716C94.7849 10.1114 94.4249 10.4657 93.9678 10.74C94.5507 11.0143 95.0135 11.3857 95.3564 11.8543C95.6992 12.3229 95.8707 12.8543 95.8707 13.4486C95.8707 14.1343 95.6935 14.74 95.3392 15.2657C94.9964 15.7914 94.5049 16.2029 93.8649 16.5C93.2364 16.7857 92.5049 16.9286 91.6707 16.9286H85.7564ZM88.2421 9.83145H91.2421C91.7792 9.83145 92.2021 9.70573 92.5107 9.4543C92.8307 9.19145 92.9907 8.84287 92.9907 8.40859C92.9907 7.9743 92.8307 7.63145 92.5107 7.38002C92.2021 7.11716 91.7792 6.98573 91.2421 6.98573H88.2421V9.83145ZM88.2421 14.8714H91.4821C92.0535 14.8714 92.5107 14.7343 92.8535 14.46C93.1964 14.1743 93.3678 13.7972 93.3678 13.3286C93.3678 12.8486 93.1964 12.4714 92.8535 12.1972C92.5107 11.9114 92.0535 11.7686 91.4821 11.7686H88.2421V14.8714ZM96.2261 16.9286L101.163 4.92859H104.026L108.912 16.9286H106.22L105.003 13.7743H100.049L98.8147 16.9286H96.2261ZM100.82 11.7857H104.249L102.535 7.36287L100.82 11.7857ZM109.93 16.9286V4.92859H112.296L118.262 12.6772V4.92859H120.593V16.9286H118.399L112.279 8.90573V16.9286H109.93ZM128.668 17.1172C127.777 17.1172 126.948 16.9629 126.182 16.6543C125.417 16.3343 124.742 15.8943 124.159 15.3343C123.577 14.7629 123.119 14.1057 122.788 13.3629C122.468 12.6086 122.308 11.7972 122.308 10.9286C122.308 10.06 122.468 9.2543 122.788 8.51145C123.119 7.75716 123.571 7.10002 124.142 6.54002C124.714 5.96859 125.382 5.52859 126.148 5.22002C126.925 4.90002 127.754 4.74002 128.634 4.74002C129.628 4.74002 130.565 4.94002 131.445 5.34002C132.325 5.72859 133.051 6.27716 133.622 6.98573L131.891 8.58002C131.479 8.06573 130.994 7.67716 130.434 7.4143C129.874 7.15145 129.274 7.02002 128.634 7.02002C128.097 7.02002 127.599 7.12287 127.142 7.32859C126.685 7.52287 126.285 7.79716 125.942 8.15145C125.599 8.4943 125.331 8.90573 125.137 9.38573C124.954 9.8543 124.862 10.3686 124.862 10.9286C124.862 11.4886 124.959 12.0086 125.154 12.4886C125.348 12.9686 125.617 13.3857 125.959 13.74C126.314 14.0829 126.719 14.3572 127.177 14.5629C127.645 14.7572 128.154 14.8543 128.702 14.8543C129.274 14.8543 129.788 14.7514 130.245 14.5457C130.702 14.3286 131.085 14.0314 131.394 13.6543C131.714 13.2657 131.925 12.8314 132.028 12.3514H128.479V10.1914H134.685V10.9457C134.685 11.8372 134.531 12.66 134.222 13.4143C133.925 14.1572 133.508 14.8086 132.971 15.3686C132.434 15.9172 131.799 16.3457 131.068 16.6543C130.337 16.9629 129.537 17.1172 128.668 17.1172ZM136.381 16.9286V4.92859H138.867V14.7343H145.433V16.9286H136.381ZM146.248 16.9286L151.186 4.92859H154.048L158.934 16.9286H156.243L155.026 13.7743H150.071L148.837 16.9286H146.248ZM150.843 11.7857H154.271L152.557 7.36287L150.843 11.7857Z" fill="black"/>
<rect width="125" height="11" transform="translate(47.1429 24.0714)" fill="#505EFF"/>
<path d="M53.2515 33.0714V27.0714H54.1257L57.4772 31.5286V27.0714H58.3257V33.0714H57.5372L54.1086 28.4771V33.0714H53.2515ZM67.183 33.0714V27.0714H71.6059V27.86H68.083V29.66H70.3973V30.4228H68.083V32.2828H71.6402V33.0714H67.183ZM81.1373 33.0714L79.8259 27.0714H80.7516L81.6859 31.6571L83.0402 27.0714H83.8973L85.2516 31.6486L86.1945 27.0714H87.0773L85.7659 33.0714H84.8402L83.4602 28.3571L82.0716 33.0714H81.1373ZM97.5296 33.1571C97.0496 33.1571 96.5868 33.0628 96.1411 32.8743C95.6954 32.6857 95.3011 32.42 94.9582 32.0771L95.5068 31.4428C95.8325 31.7628 96.1639 32 96.5011 32.1543C96.8439 32.3086 97.2011 32.3857 97.5725 32.3857C97.8639 32.3857 98.1182 32.3457 98.3354 32.2657C98.5582 32.18 98.7296 32.06 98.8496 31.9057C98.9696 31.7514 99.0296 31.5771 99.0296 31.3828C99.0296 31.1143 98.9354 30.9086 98.7468 30.7657C98.5582 30.6228 98.2468 30.5143 97.8125 30.44L96.8096 30.2771C96.2611 30.18 95.8496 30.0028 95.5754 29.7457C95.3068 29.4886 95.1725 29.1457 95.1725 28.7171C95.1725 28.3743 95.2639 28.0743 95.4468 27.8171C95.6296 27.5543 95.8868 27.3514 96.2182 27.2086C96.5554 27.0657 96.9439 26.9943 97.3839 26.9943C97.8182 26.9943 98.2439 27.0657 98.6611 27.2086C99.0839 27.3457 99.4639 27.5457 99.8011 27.8086L99.3039 28.4943C98.6582 28.0028 98.0039 27.7571 97.3411 27.7571C97.0782 27.7571 96.8496 27.7943 96.6554 27.8686C96.4611 27.9428 96.3096 28.0486 96.2011 28.1857C96.0925 28.3171 96.0382 28.4714 96.0382 28.6486C96.0382 28.8943 96.1211 29.0828 96.2868 29.2143C96.4525 29.34 96.7268 29.4314 97.1096 29.4886L98.0782 29.6514C98.7125 29.7543 99.1782 29.94 99.4754 30.2086C99.7725 30.4771 99.9211 30.8457 99.9211 31.3143C99.9211 31.68 99.8211 32.0028 99.6211 32.2828C99.4211 32.5571 99.1411 32.7714 98.7811 32.9257C98.4211 33.08 98.0039 33.1571 97.5296 33.1571ZM108.383 33.0714V27.0714H111.161C111.555 27.0714 111.898 27.1486 112.189 27.3028C112.481 27.4514 112.709 27.66 112.875 27.9286C113.041 28.1971 113.123 28.5086 113.123 28.8628C113.123 29.2171 113.041 29.5286 112.875 29.7971C112.709 30.0657 112.478 30.2771 112.181 30.4314C111.889 30.58 111.549 30.6543 111.161 30.6543H109.283V33.0714H108.383ZM109.283 29.8914H111.066C111.421 29.8914 111.701 29.8 111.906 29.6171C112.118 29.4286 112.223 29.18 112.223 28.8714C112.223 28.5628 112.118 28.3171 111.906 28.1343C111.701 27.9514 111.421 27.86 111.066 27.86H109.283V29.8914ZM120.208 33.0714L122.686 27.0714H123.748L126.2 33.0714H125.223L124.528 31.3143H121.846L121.143 33.0714H120.208ZM122.137 30.5686H124.237L123.191 27.9286L122.137 30.5686ZM134.447 33.0714V27.0714H137.224C137.618 27.0714 137.961 27.1486 138.253 27.3028C138.544 27.4514 138.773 27.66 138.938 27.9286C139.104 28.1971 139.187 28.5086 139.187 28.8628C139.187 29.2171 139.104 29.5286 138.938 29.7971C138.773 30.0657 138.541 30.2771 138.244 30.4314C137.953 30.58 137.613 30.6543 137.224 30.6543H135.347V33.0714H134.447ZM135.347 29.8914H137.13C137.484 29.8914 137.764 29.8 137.97 29.6171C138.181 29.4286 138.287 29.18 138.287 28.8714C138.287 28.5628 138.181 28.3171 137.97 28.1343C137.764 27.9514 137.484 27.86 137.13 27.86H135.347V29.8914ZM147.742 33.0714V27.0714H152.165V27.86H148.642V29.66H150.957V30.4228H148.642V32.2828H152.2V33.0714H147.742ZM160.753 33.0714V27.0714H163.47C163.87 27.0714 164.219 27.1457 164.516 27.2943C164.819 27.4428 165.053 27.6514 165.219 27.92C165.39 28.1828 165.476 28.4914 165.476 28.8457C165.476 29.24 165.365 29.58 165.142 29.8657C164.919 30.1514 164.619 30.3571 164.242 30.4828L165.579 33.0714H164.585L163.342 30.6114H161.653V33.0714H160.753ZM161.653 29.8571H163.402C163.756 29.8571 164.039 29.7686 164.25 29.5914C164.468 29.4086 164.576 29.1628 164.576 28.8543C164.576 28.5571 164.468 28.3171 164.25 28.1343C164.039 27.9514 163.756 27.86 163.402 27.86H161.653V29.8571Z" fill="white"/>
<defs>
<linearGradient id="paint0_linear_4001_39" x1="21.7578" y1="38.75" x2="21.7578" y2="5.9375" gradientUnits="userSpaceOnUse">
<stop stop-color="#5558FF"/>
<stop offset="1" stop-color="#00C0FF"/>
</linearGradient>
<linearGradient id="paint1_linear_4001_39" x1="17.6172" y1="34.0625" x2="17.6172" y2="12.2572" gradientUnits="userSpaceOnUse">
<stop stop-color="#ADDCFF"/>
<stop offset="0.503" stop-color="#EAF6FF"/>
<stop offset="1" stop-color="#EAF6FF"/>
</linearGradient>
</defs>
</svg>
