<svg width="241" height="56" viewBox="0 0 241 56" fill="none" xmlns="http://www.w3.org/2000/svg">
<path d="M51.0781 11.5938H46.1562L14.7656 8.3125L6.5625 16.5156L4.92188 54.25H49.4375C53.0468 54.25 56 51.2968 56 47.6875V16.5156C56 13.7922 53.8016 11.5938 51.0781 11.5938Z" fill="url(#paint0_linear_1_2476)"/>
<path d="M46.1562 5.03125C46.1562 3.22656 44.6797 1.75 42.875 1.75H3.28125C1.47656 1.75 0 3.22656 0 5.03125V49.3281C0 52.105 2.2657 54.25 4.92188 54.25C7.64542 54.25 9.84375 52.0513 9.84375 49.3281V16.5156C9.84375 13.7922 12.0421 11.5938 14.7656 11.5938H46.1562V5.03125ZM16.5156 39.4844C16.5156 40.3912 17.2494 41.125 18.1562 41.125H47.6875C48.5943 41.125 49.3281 40.3912 49.3281 39.4844C49.3281 38.5775 48.5943 37.8438 47.6875 37.8438H18.1562C17.2494 37.8438 16.5156 38.5775 16.5156 39.4844ZM47.6875 44.4062H18.1562C17.2494 44.4062 16.5156 45.14 16.5156 46.0469C16.5156 46.9537 17.2494 47.6875 18.1562 47.6875H47.6875C48.5943 47.6875 49.3281 46.9537 49.3281 46.0469C49.3281 45.14 48.5943 44.4062 47.6875 44.4062ZM42.003 23.3153C41.9088 23.024 41.7349 22.7649 41.501 22.5675C41.2671 22.3701 40.9825 22.2423 40.6795 22.1985L36.6869 21.617L34.8988 17.9993C34.3477 16.8809 32.5084 16.8794 31.9572 18.0009L30.1724 21.6171L26.1798 22.1986C25.8768 22.2424 25.5922 22.3703 25.3583 22.5677C25.1244 22.7651 24.9505 23.0241 24.8563 23.3154C24.7619 23.6064 24.7508 23.9182 24.8245 24.2152C24.8981 24.5123 25.0535 24.7828 25.273 24.996L28.16 27.8126L27.4775 31.7877C27.4258 32.0896 27.4596 32.4 27.5752 32.6837C27.6907 32.9674 27.8833 33.2131 28.1313 33.3931C28.379 33.5727 28.672 33.6794 28.9772 33.7012C29.2824 33.723 29.5876 33.659 29.8584 33.5164L33.4281 31.6403L37.0009 33.5164C37.552 33.8064 38.2217 33.7615 38.728 33.3914C38.976 33.2119 39.1687 32.9665 39.2843 32.683C39.3998 32.3996 39.4336 32.0894 39.3818 31.7877L38.6993 27.8126L41.5863 24.996C41.8058 24.7827 41.9612 24.5122 42.0348 24.2152C42.1085 23.9181 42.0974 23.6064 42.003 23.3153Z" fill="url(#paint1_linear_1_2476)"/>
<path d="M65.904 23.5L72.816 6.7H76.824L83.664 23.5H79.896L78.192 19.084H71.256L69.528 23.5H65.904ZM72.336 16.3H77.136L74.736 10.108L72.336 16.3ZM85.0901 23.5V6.7H88.5701V20.428H97.7621V23.5H85.0901ZM100.16 23.5V6.7H103.64V20.428H112.832V23.5H100.16ZM120.059 23.5V6.7H127.955C129.091 6.7 130.083 6.892 130.931 7.276C131.779 7.66 132.443 8.204 132.923 8.908C133.403 9.596 133.643 10.396 133.643 11.308C133.643 12.044 133.451 12.724 133.067 13.348C132.699 13.956 132.195 14.452 131.555 14.836C132.371 15.22 133.019 15.74 133.499 16.396C133.979 17.052 134.219 17.796 134.219 18.628C134.219 19.588 133.971 20.436 133.475 21.172C132.995 21.908 132.307 22.484 131.411 22.9C130.531 23.3 129.507 23.5 128.339 23.5H120.059ZM123.539 13.564H127.739C128.491 13.564 129.083 13.388 129.515 13.036C129.963 12.668 130.187 12.18 130.187 11.572C130.187 10.964 129.963 10.484 129.515 10.132C129.083 9.764 128.491 9.58 127.739 9.58H123.539V13.564ZM123.539 20.62H128.075C128.875 20.62 129.515 20.428 129.995 20.044C130.475 19.644 130.715 19.116 130.715 18.46C130.715 17.788 130.475 17.26 129.995 16.876C129.515 16.476 128.875 16.276 128.075 16.276H123.539V20.62ZM134.716 23.5L141.629 6.7H145.637L152.477 23.5H148.709L147.005 19.084H140.069L138.34 23.5H134.716ZM141.148 16.3H145.949L143.549 10.108L141.148 16.3ZM153.903 23.5V6.7H157.215L165.567 17.548V6.7H168.831V23.5H165.759L157.191 12.268V23.5H153.903ZM180.135 23.764C178.887 23.764 177.727 23.548 176.655 23.116C175.583 22.668 174.639 22.052 173.823 21.268C173.007 20.468 172.367 19.548 171.903 18.508C171.455 17.452 171.231 16.316 171.231 15.1C171.231 13.884 171.455 12.756 171.903 11.716C172.367 10.66 172.999 9.74 173.799 8.956C174.599 8.156 175.535 7.54 176.607 7.108C177.695 6.66 178.855 6.436 180.087 6.436C181.479 6.436 182.791 6.716 184.023 7.276C185.255 7.82 186.271 8.588 187.071 9.58L184.647 11.812C184.071 11.092 183.391 10.548 182.607 10.18C181.823 9.812 180.983 9.628 180.087 9.628C179.335 9.628 178.639 9.772 177.999 10.06C177.359 10.332 176.799 10.716 176.319 11.212C175.839 11.692 175.463 12.268 175.191 12.94C174.935 13.596 174.807 14.316 174.807 15.1C174.807 15.884 174.943 16.612 175.215 17.284C175.487 17.956 175.863 18.54 176.343 19.036C176.839 19.516 177.407 19.9 178.047 20.188C178.703 20.46 179.415 20.596 180.183 20.596C180.983 20.596 181.703 20.452 182.343 20.164C182.983 19.86 183.519 19.444 183.951 18.916C184.399 18.372 184.695 17.764 184.839 17.092H179.871V14.068H188.559V15.124C188.559 16.372 188.343 17.524 187.911 18.58C187.495 19.62 186.911 20.532 186.159 21.316C185.407 22.084 184.519 22.684 183.495 23.116C182.471 23.548 181.351 23.764 180.135 23.764ZM190.934 23.5V6.7H194.414V20.428H203.606V23.5H190.934ZM204.748 23.5L211.66 6.7H215.668L222.508 23.5H218.74L217.036 19.084H210.1L208.372 23.5H204.748ZM211.18 16.3H215.98L213.58 10.108L211.18 16.3Z" fill="black"/>
<rect width="175" height="16" transform="translate(66 33.5)" fill="#505EFF"/>
<path d="M74.852 45.5V37.1H76.076L80.768 43.34V37.1H81.956V45.5H80.852L76.052 39.068V45.5H74.852ZM94.3562 45.5V37.1H100.548V38.204H95.6162V40.724H98.8562V41.792H95.6162V44.396H100.596V45.5H94.3562ZM113.892 45.5L112.056 37.1H113.352L114.66 43.52L116.556 37.1H117.756L119.652 43.508L120.972 37.1H122.208L120.372 45.5H119.076L117.144 38.9L115.2 45.5H113.892ZM136.841 45.62C136.169 45.62 135.521 45.488 134.897 45.224C134.273 44.96 133.721 44.588 133.241 44.108L134.009 43.22C134.465 43.668 134.929 44 135.401 44.216C135.881 44.432 136.381 44.54 136.901 44.54C137.309 44.54 137.665 44.484 137.969 44.372C138.281 44.252 138.521 44.084 138.689 43.868C138.857 43.652 138.941 43.408 138.941 43.136C138.941 42.76 138.809 42.472 138.545 42.272C138.281 42.072 137.845 41.92 137.237 41.816L135.833 41.588C135.065 41.452 134.489 41.204 134.105 40.844C133.729 40.484 133.541 40.004 133.541 39.404C133.541 38.924 133.669 38.504 133.925 38.144C134.181 37.776 134.541 37.492 135.005 37.292C135.477 37.092 136.021 36.992 136.637 36.992C137.245 36.992 137.841 37.092 138.425 37.292C139.017 37.484 139.549 37.764 140.021 38.132L139.325 39.092C138.421 38.404 137.505 38.06 136.577 38.06C136.209 38.06 135.889 38.112 135.617 38.216C135.345 38.32 135.133 38.468 134.981 38.66C134.829 38.844 134.753 39.06 134.753 39.308C134.753 39.652 134.869 39.916 135.101 40.1C135.333 40.276 135.717 40.404 136.253 40.484L137.609 40.712C138.497 40.856 139.149 41.116 139.565 41.492C139.981 41.868 140.189 42.384 140.189 43.04C140.189 43.552 140.049 44.004 139.769 44.396C139.489 44.78 139.097 45.08 138.593 45.296C138.089 45.512 137.505 45.62 136.841 45.62ZM152.037 45.5V37.1H155.925C156.477 37.1 156.957 37.208 157.365 37.424C157.773 37.632 158.093 37.924 158.325 38.3C158.557 38.676 158.673 39.112 158.673 39.608C158.673 40.104 158.557 40.54 158.325 40.916C158.093 41.292 157.769 41.588 157.353 41.804C156.945 42.012 156.469 42.116 155.925 42.116H153.297V45.5H152.037ZM153.297 41.048H155.793C156.289 41.048 156.681 40.92 156.969 40.664C157.265 40.4 157.413 40.052 157.413 39.62C157.413 39.188 157.265 38.844 156.969 38.588C156.681 38.332 156.289 38.204 155.793 38.204H153.297V41.048ZM168.592 45.5L172.06 37.1H173.548L176.98 45.5H175.612L174.64 43.04H170.884L169.9 45.5H168.592ZM171.292 41.996H174.232L172.768 38.3L171.292 41.996ZM188.526 45.5V37.1H192.414C192.966 37.1 193.446 37.208 193.854 37.424C194.262 37.632 194.582 37.924 194.814 38.3C195.046 38.676 195.162 39.112 195.162 39.608C195.162 40.104 195.046 40.54 194.814 40.916C194.582 41.292 194.258 41.588 193.842 41.804C193.434 42.012 192.958 42.116 192.414 42.116H189.786V45.5H188.526ZM189.786 41.048H192.282C192.778 41.048 193.17 40.92 193.458 40.664C193.754 40.4 193.902 40.052 193.902 39.62C193.902 39.188 193.754 38.844 193.458 38.588C193.17 38.332 192.778 38.204 192.282 38.204H189.786V41.048ZM207.139 45.5V37.1H213.331V38.204H208.399V40.724H211.639V41.792H208.399V44.396H213.379V45.5H207.139ZM225.355 45.5V37.1H229.159C229.719 37.1 230.207 37.204 230.623 37.412C231.047 37.62 231.375 37.912 231.607 38.288C231.847 38.656 231.967 39.088 231.967 39.584C231.967 40.136 231.811 40.612 231.499 41.012C231.187 41.412 230.767 41.7 230.239 41.876L232.111 45.5H230.719L228.979 42.056H226.615V45.5H225.355ZM226.615 41H229.063C229.559 41 229.955 40.876 230.251 40.628C230.555 40.372 230.707 40.028 230.707 39.596C230.707 39.18 230.555 38.844 230.251 38.588C229.955 38.332 229.559 38.204 229.063 38.204H226.615V41Z" fill="white"/>
<defs>
<linearGradient id="paint0_linear_1_2476" x1="30.4609" y1="54.25" x2="30.4609" y2="8.3125" gradientUnits="userSpaceOnUse">
<stop stop-color="#5558FF"/>
<stop offset="1" stop-color="#00C0FF"/>
</linearGradient>
<linearGradient id="paint1_linear_1_2476" x1="24.6641" y1="47.6875" x2="24.6641" y2="17.1601" gradientUnits="userSpaceOnUse">
<stop stop-color="#ADDCFF"/>
<stop offset="0.503" stop-color="#EAF6FF"/>
<stop offset="1" stop-color="#EAF6FF"/>
</linearGradient>
</defs>
</svg>
