<svg width="16" height="16" viewBox="0 0 16 16" fill="none" xmlns="http://www.w3.org/2000/svg">
<path d="M13.3333 13.3333L10.6333 10.6333M10.6333 10.6333C11.0666 10.2 11.4104 9.68549 11.6449 9.11928C11.8795 8.55306 12.0002 7.9462 12.0002 7.33333C12.0002 6.72047 11.8795 6.1136 11.6449 5.54739C11.4104 4.98117 11.0666 4.46669 10.6333 4.03333C10.1999 3.59997 9.68545 3.25621 9.11923 3.02167C8.55302 2.78714 7.94615 2.66643 7.33329 2.66643C6.72042 2.66643 6.11355 2.78714 5.54734 3.02167C4.98112 3.25621 4.46665 3.59997 4.03329 4.03333C3.15807 4.90855 2.66638 6.09559 2.66638 7.33333C2.66638 8.57107 3.15807 9.75812 4.03329 10.6333C4.9085 11.5085 6.09555 12.0002 7.33329 12.0002C8.57103 12.0002 9.75807 11.5085 10.6333 10.6333Z" stroke="#6366F1" stroke-width="1.33333" stroke-linecap="round" stroke-linejoin="round"/>
</svg>
